<?xml version="1.0" encoding="UTF-8" standalone="no"?><svg xmlns="http://www.w3.org/2000/svg" xmlns:xlink="http://www.w3.org/1999/xlink" clip-rule="evenodd" stroke-miterlimit="10" viewBox="0 0 1280 720"><desc>SVG generated by Keynote</desc><defs></defs><g transform="matrix(1.00, 0.00, -0.00, -1.00, 0.0, 720.0)"><path d="M 0.0 720.0 L 1280.0 720.0 L 1280.0 0.0 L 0.0 0.0 Z M 0.0 720.0 " fill="#A01D04"></path><text xml:space="preserve" font-family="Arial-BoldMT,Arial" font-weight="bold" font-size="72.0" fill="#FFFFFF" transform="matrix(1.00, 0.00, -0.00, -1.00, 188.0, 436.6)">O</text><text xml:space="preserve" font-family="Arial-BoldMT,Arial" font-weight="bold" font-size="72.0" fill="#FFFFFF" transform="matrix(1.00, 0.00, -0.00, -1.00, 244.0, 436.6)">A</text><text xml:space="preserve" font-family="Arial-BoldMT,Arial" font-weight="bold" font-size="72.0" fill="#FFFFFF" transform="matrix(1.00, 0.00, -0.00, -1.00, 296.0, 436.6)">u</text><text xml:space="preserve" font-family="Arial-BoldMT,Arial" font-weight="bold" font-size="72.0" fill="#FFFFFF" transform="matrix(1.00, 0.00, -0.00, -1.00, 340.0, 436.6)">t</text><text xml:space="preserve" font-family="Arial-BoldMT,Arial" font-weight="bold" font-size="72.0" fill="#FFFFFF" transform="matrix(1.00, 0.00, -0.00, -1.00, 363.9, 436.6)">h</text><text xml:space="preserve" font-family="Arial-BoldMT,Arial" font-weight="bold" font-size="72.0" fill="#FFFFFF" transform="matrix(1.00, 0.00, -0.00, -1.00, 407.9, 436.6)">2</text><text xml:space="preserve" font-family="Arial-BoldMT,Arial" font-weight="bold" font-size="72.0" fill="#FFFFFF" transform="matrix(1.00, 0.00, -0.00, -1.00, 448.0, 436.6)"> </text><text xml:space="preserve" font-family="Arial-BoldMT,Arial" font-weight="bold" font-size="72.0" fill="#FFFFFF" transform="matrix(1.00, 0.00, -0.00, -1.00, 468.0, 436.6)">/</text><text xml:space="preserve" font-family="Arial-BoldMT,Arial" font-weight="bold" font-size="72.0" fill="#FFFFFF" transform="matrix(1.00, 0.00, -0.00, -1.00, 487.9, 436.6)"> </text><text xml:space="preserve" font-family="Arial-BoldMT,Arial" font-weight="bold" font-size="72.0" fill="#FFFFFF" transform="matrix(1.00, 0.00, -0.00, -1.00, 507.9, 436.6)">O</text><text xml:space="preserve" font-family="Arial-BoldMT,Arial" font-weight="bold" font-size="72.0" fill="#FFFFFF" transform="matrix(1.00, 0.00, -0.00, -1.00, 563.9, 436.6)">p</text><text xml:space="preserve" font-family="Arial-BoldMT,Arial" font-weight="bold" font-size="72.0" fill="#FFFFFF" transform="matrix(1.00, 0.00, -0.00, -1.00, 607.9, 436.6)">e</text><text xml:space="preserve" font-family="Arial-BoldMT,Arial" font-weight="bold" font-size="72.0" fill="#FFFFFF" transform="matrix(1.00, 0.00, -0.00, -1.00, 647.9, 436.6)">n</text><text xml:space="preserve" font-family="Arial-BoldMT,Arial" font-weight="bold" font-size="72.0" fill="#FFFFFF" transform="matrix(1.00, 0.00, -0.00, -1.00, 691.9, 436.6)"> </text><text xml:space="preserve" font-family="Arial-BoldMT,Arial" font-weight="bold" font-size="72.0" fill="#FFFFFF" transform="matrix(1.00, 0.00, -0.00, -1.00, 711.9, 436.6)">I</text><text xml:space="preserve" font-family="Arial-BoldMT,Arial" font-weight="bold" font-size="72.0" fill="#FFFFFF" transform="matrix(1.00, 0.00, -0.00, -1.00, 731.9, 436.6)">D</text><text xml:space="preserve" font-family="Arial-BoldMT,Arial" font-weight="bold" font-size="72.0" fill="#FFFFFF" transform="matrix(1.00, 0.00, -0.00, -1.00, 783.9, 436.6)"> </text><text xml:space="preserve" font-family="Arial-BoldMT,Arial" font-weight="bold" font-size="72.0" fill="#FFFFFF" transform="matrix(1.00, 0.00, -0.00, -1.00, 803.9, 436.6)">C</text><text xml:space="preserve" font-family="Arial-BoldMT,Arial" font-weight="bold" font-size="72.0" fill="#FFFFFF" transform="matrix(1.00, 0.00, -0.00, -1.00, 855.9, 436.6)">o</text><text xml:space="preserve" font-family="Arial-BoldMT,Arial" font-weight="bold" font-size="72.0" fill="#FFFFFF" transform="matrix(1.00, 0.00, -0.00, -1.00, 899.9, 436.6)">n</text><text xml:space="preserve" font-family="Arial-BoldMT,Arial" font-weight="bold" font-size="72.0" fill="#FFFFFF" transform="matrix(1.00, 0.00, -0.00, -1.00, 943.8, 436.6)">n</text><text xml:space="preserve" font-family="Arial-BoldMT,Arial" font-weight="bold" font-size="72.0" fill="#FFFFFF" transform="matrix(1.00, 0.00, -0.00, -1.00, 987.8, 436.6)">e</text><text xml:space="preserve" font-family="Arial-BoldMT,Arial" font-weight="bold" font-size="72.0" fill="#FFFFFF" transform="matrix(1.00, 0.00, -0.00, -1.00, 1027.9, 436.6)">c</text><text xml:space="preserve" font-family="Arial-BoldMT,Arial" font-weight="bold" font-size="72.0" fill="#FFFFFF" transform="matrix(1.00, 0.00, -0.00, -1.00, 1067.9, 436.6)">t</text><text xml:space="preserve" font-family="Arial-BoldMT,Arial" font-weight="bold" font-size="72.0" fill="#FFFFFF" transform="matrix(1.00, 0.00, -0.00, -1.00, 1091.9, 436.6)"> </text><text xml:space="preserve" font-family="Arial-BoldMT,Arial" font-weight="bold" font-size="72.0" fill="#FFFFFF" transform="matrix(1.00, 0.00, -0.00, -1.00, 1112.0, 436.6)"> </text><text xml:space="preserve" font-family="Arial-BoldMT,Arial" font-weight="bold" font-size="57.0" fill="#FFFFFF" transform="matrix(1.00, 0.00, -0.00, -1.00, 269.4, 366.9)">f</text><text xml:space="preserve" font-family="Arial-BoldMT,Arial" font-weight="bold" font-size="57.0" fill="#FFFFFF" transform="matrix(1.00, 0.00, -0.00, -1.00, 288.4, 366.9)">o</text><text xml:space="preserve" font-family="Arial-BoldMT,Arial" font-weight="bold" font-size="57.0" fill="#FFFFFF" transform="matrix(1.00, 0.00, -0.00, -1.00, 323.2, 366.9)">r</text><text xml:space="preserve" font-family="Arial-BoldMT,Arial" font-weight="bold" font-size="57.0" fill="#FFFFFF" transform="matrix(1.00, 0.00, -0.00, -1.00, 345.4, 366.9)"> </text><text xml:space="preserve" font-family="Arial-BoldMT,Arial" font-weight="bold" font-size="57.0" fill="#FFFFFF" transform="matrix(1.00, 0.00, -0.00, -1.00, 361.3, 366.9)">n</text><text xml:space="preserve" font-family="Arial-BoldMT,Arial" font-weight="bold" font-size="57.0" fill="#FFFFFF" transform="matrix(1.00, 0.00, -0.00, -1.00, 396.1, 366.9)">a</text><text xml:space="preserve" font-family="Arial-BoldMT,Arial" font-weight="bold" font-size="57.0" fill="#FFFFFF" transform="matrix(1.00, 0.00, -0.00, -1.00, 427.8, 366.9)">t</text><text xml:space="preserve" font-family="Arial-BoldMT,Arial" font-weight="bold" font-size="57.0" fill="#FFFFFF" transform="matrix(1.00, 0.00, -0.00, -1.00, 446.8, 366.9)">i</text><text xml:space="preserve" font-family="Arial-BoldMT,Arial" font-weight="bold" font-size="57.0" fill="#FFFFFF" transform="matrix(1.00, 0.00, -0.00, -1.00, 462.6, 366.9)">v</text><text xml:space="preserve" font-family="Arial-BoldMT,Arial" font-weight="bold" font-size="57.0" fill="#FFFFFF" transform="matrix(1.00, 0.00, -0.00, -1.00, 494.3, 366.9)">e</text><text xml:space="preserve" font-family="Arial-BoldMT,Arial" font-weight="bold" font-size="57.0" fill="#FFFFFF" transform="matrix(1.00, 0.00, -0.00, -1.00, 526.0, 366.9)"> </text><text xml:space="preserve" font-family="Arial-BoldMT,Arial" font-weight="bold" font-size="57.0" fill="#FFFFFF" transform="matrix(1.00, 0.00, -0.00, -1.00, 541.8, 366.9)">a</text><text xml:space="preserve" font-family="Arial-BoldMT,Arial" font-weight="bold" font-size="57.0" fill="#FFFFFF" transform="matrix(1.00, 0.00, -0.00, -1.00, 573.5, 366.9)">p</text><text xml:space="preserve" font-family="Arial-BoldMT,Arial" font-weight="bold" font-size="57.0" fill="#FFFFFF" transform="matrix(1.00, 0.00, -0.00, -1.00, 608.3, 366.9)">p</text><text xml:space="preserve" font-family="Arial-BoldMT,Arial" font-weight="bold" font-size="57.0" fill="#FFFFFF" transform="matrix(1.00, 0.00, -0.00, -1.00, 643.2, 366.9)">s</text><text xml:space="preserve" font-family="Arial-BoldMT,Arial" font-weight="bold" font-size="57.0" fill="#FFFFFF" transform="matrix(1.00, 0.00, -0.00, -1.00, 674.9, 366.9)"> </text><text xml:space="preserve" font-family="Arial-BoldMT,Arial" font-weight="bold" font-size="57.0" fill="#FFFFFF" transform="matrix(1.00, 0.00, -0.00, -1.00, 690.7, 366.9)">a</text><text xml:space="preserve" font-family="Arial-BoldMT,Arial" font-weight="bold" font-size="57.0" fill="#FFFFFF" transform="matrix(1.00, 0.00, -0.00, -1.00, 722.4, 366.9)">n</text><text xml:space="preserve" font-family="Arial-BoldMT,Arial" font-weight="bold" font-size="57.0" fill="#FFFFFF" transform="matrix(1.00, 0.00, -0.00, -1.00, 757.2, 366.9)">d</text><text xml:space="preserve" font-family="Arial-BoldMT,Arial" font-weight="bold" font-size="57.0" fill="#FFFFFF" transform="matrix(1.00, 0.00, -0.00, -1.00, 792.0, 366.9)"> </text><text xml:space="preserve" font-family="Arial-BoldMT,Arial" font-weight="bold" font-size="57.0" fill="#FFFFFF" transform="matrix(1.00, 0.00, -0.00, -1.00, 807.8, 366.9)">b</text><text xml:space="preserve" font-family="Arial-BoldMT,Arial" font-weight="bold" font-size="57.0" fill="#FFFFFF" transform="matrix(1.00, 0.00, -0.00, -1.00, 842.6, 366.9)">e</text><text xml:space="preserve" font-family="Arial-BoldMT,Arial" font-weight="bold" font-size="57.0" fill="#FFFFFF" transform="matrix(1.00, 0.00, -0.00, -1.00, 874.4, 366.9)">y</text><text xml:space="preserve" font-family="Arial-BoldMT,Arial" font-weight="bold" font-size="57.0" fill="#FFFFFF" transform="matrix(1.00, 0.00, -0.00, -1.00, 906.1, 366.9)">o</text><text xml:space="preserve" font-family="Arial-BoldMT,Arial" font-weight="bold" font-size="57.0" fill="#FFFFFF" transform="matrix(1.00, 0.00, -0.00, -1.00, 940.9, 366.9)">n</text><text xml:space="preserve" font-family="Arial-BoldMT,Arial" font-weight="bold" font-size="57.0" fill="#FFFFFF" transform="matrix(1.00, 0.00, -0.00, -1.00, 975.7, 366.9)">d</text><text xml:space="preserve" font-family="Arial-BoldMT,Arial" font-weight="bold" font-size="30.0" fill="#FFFFFF" transform="matrix(1.00, 0.00, -0.00, -1.00, 536.6, 285.3)">C</text><text xml:space="preserve" font-family="Arial-BoldMT,Arial" font-weight="bold" font-size="30.0" fill="#FFFFFF" transform="matrix(1.00, 0.00, -0.00, -1.00, 558.3, 285.3)">o</text><text xml:space="preserve" font-family="Arial-BoldMT,Arial" font-weight="bold" font-size="30.0" fill="#FFFFFF" transform="matrix(1.00, 0.00, -0.00, -1.00, 576.7, 285.3)">r</text><text xml:space="preserve" font-family="Arial-BoldMT,Arial" font-weight="bold" font-size="30.0" fill="#FFFFFF" transform="matrix(1.00, 0.00, -0.00, -1.00, 588.3, 285.3)">i</text><text xml:space="preserve" font-family="Arial-BoldMT,Arial" font-weight="bold" font-size="30.0" fill="#FFFFFF" transform="matrix(1.00, 0.00, -0.00, -1.00, 596.7, 285.3)">n</text><text xml:space="preserve" font-family="Arial-BoldMT,Arial" font-weight="bold" font-size="30.0" fill="#FFFFFF" transform="matrix(1.00, 0.00, -0.00, -1.00, 615.0, 285.3)">n</text><text xml:space="preserve" font-family="Arial-BoldMT,Arial" font-weight="bold" font-size="30.0" fill="#FFFFFF" transform="matrix(1.00, 0.00, -0.00, -1.00, 633.3, 285.3)">e</text><text xml:space="preserve" font-family="Arial-BoldMT,Arial" font-weight="bold" font-size="30.0" fill="#FFFFFF" transform="matrix(1.00, 0.00, -0.00, -1.00, 650.0, 285.3)"> </text><text xml:space="preserve" font-family="Arial-BoldMT,Arial" font-weight="bold" font-size="30.0" fill="#FFFFFF" transform="matrix(1.00, 0.00, -0.00, -1.00, 658.4, 285.3)">K</text><text xml:space="preserve" font-family="Arial-BoldMT,Arial" font-weight="bold" font-size="30.0" fill="#FFFFFF" transform="matrix(1.00, 0.00, -0.00, -1.00, 680.0, 285.3)">r</text><text xml:space="preserve" font-family="Arial-BoldMT,Arial" font-weight="bold" font-size="30.0" fill="#FFFFFF" transform="matrix(1.00, 0.00, -0.00, -1.00, 691.7, 285.3)">y</text><text xml:space="preserve" font-family="Arial-BoldMT,Arial" font-weight="bold" font-size="30.0" fill="#FFFFFF" transform="matrix(1.00, 0.00, -0.00, -1.00, 708.4, 285.3)">c</text><text xml:space="preserve" font-family="Arial-BoldMT,Arial" font-weight="bold" font-size="30.0" fill="#FFFFFF" transform="matrix(1.00, 0.00, -0.00, -1.00, 725.1, 285.3)">h</text><text xml:space="preserve" font-family="Arial-BoldMT,Arial" font-weight="bold" font-size="30.0" fill="#FFFFFF" transform="matrix(1.00, 0.00, -0.00, -1.00, 743.4, 285.3)"> </text><text xml:space="preserve" font-family="Arial-BoldMT,Arial" font-weight="bold" font-size="30.0" fill="#FFFFFF" transform="matrix(1.00, 0.00, -0.00, -1.00, 531.8, 251.3)">E</text><text xml:space="preserve" font-family="Arial-BoldMT,Arial" font-weight="bold" font-size="30.0" fill="#FFFFFF" transform="matrix(1.00, 0.00, -0.00, -1.00, 551.8, 251.3)">r</text><text xml:space="preserve" font-family="Arial-BoldMT,Arial" font-weight="bold" font-size="30.0" fill="#FFFFFF" transform="matrix(1.00, 0.00, -0.00, -1.00, 563.5, 251.3)">i</text><text xml:space="preserve" font-family="Arial-BoldMT,Arial" font-weight="bold" font-size="30.0" fill="#FFFFFF" transform="matrix(1.00, 0.00, -0.00, -1.00, 571.8, 251.3)">k</text><text xml:space="preserve" font-family="Arial-BoldMT,Arial" font-weight="bold" font-size="30.0" fill="#FFFFFF" transform="matrix(1.00, 0.00, -0.00, -1.00, 588.5, 251.3)">-</text><text xml:space="preserve" font-family="Arial-BoldMT,Arial" font-weight="bold" font-size="30.0" fill="#FFFFFF" transform="matrix(1.00, 0.00, -0.00, -1.00, 598.5, 251.3)">J</text><text xml:space="preserve" font-family="Arial-BoldMT,Arial" font-weight="bold" font-size="30.0" fill="#FFFFFF" transform="matrix(1.00, 0.00, -0.00, -1.00, 615.2, 251.3)">a</text><text xml:space="preserve" font-family="Arial-BoldMT,Arial" font-weight="bold" font-size="30.0" fill="#FFFFFF" transform="matrix(1.00, 0.00, -0.00, -1.00, 631.9, 251.3)">n</text><text xml:space="preserve" font-family="Arial-BoldMT,Arial" font-weight="bold" font-size="30.0" fill="#FFFFFF" transform="matrix(1.00, 0.00, -0.00, -1.00, 650.2, 251.3)"> </text><text xml:space="preserve" font-family="Arial-BoldMT,Arial" font-weight="bold" font-size="30.0" fill="#FFFFFF" transform="matrix(1.00, 0.00, -0.00, -1.00, 658.5, 251.3)">d</text><text xml:space="preserve" font-family="Arial-BoldMT,Arial" font-weight="bold" font-size="30.0" fill="#FFFFFF" transform="matrix(1.00, 0.00, -0.00, -1.00, 676.8, 251.3)">e</text><text xml:space="preserve" font-family="Arial-BoldMT,Arial" font-weight="bold" font-size="30.0" fill="#FFFFFF" transform="matrix(1.00, 0.00, -0.00, -1.00, 693.5, 251.3)"> </text><text xml:space="preserve" font-family="Arial-BoldMT,Arial" font-weight="bold" font-size="30.0" fill="#FFFFFF" transform="matrix(1.00, 0.00, -0.00, -1.00, 701.8, 251.3)">W</text><text xml:space="preserve" font-family="Arial-BoldMT,Arial" font-weight="bold" font-size="30.0" fill="#FFFFFF" transform="matrix(1.00, 0.00, -0.00, -1.00, 729.9, 251.3)">i</text><text xml:space="preserve" font-family="Arial-BoldMT,Arial" font-weight="bold" font-size="30.0" fill="#FFFFFF" transform="matrix(1.00, 0.00, -0.00, -1.00, 738.2, 251.3)">t</text><text xml:space="preserve" font-family="Arial-BoldMT,Arial" font-weight="bold" font-size="30.0" fill="#FFFFFF" transform="matrix(1.00, 0.00, -0.00, -1.00, 748.2, 251.3)"> </text><text xml:space="preserve" font-family="Arial-BoldMT,Arial" font-weight="bold" font-size="30.0" fill="#FFFFFF" transform="matrix(1.00, 0.00, -0.00, -1.00, 583.3, 217.3)">R</text><text xml:space="preserve" font-family="Arial-BoldMT,Arial" font-weight="bold" font-size="30.0" fill="#FFFFFF" transform="matrix(1.00, 0.00, -0.00, -1.00, 605.0, 217.3)">e</text><text xml:space="preserve" font-family="Arial-BoldMT,Arial" font-weight="bold" font-size="30.0" fill="#FFFFFF" transform="matrix(1.00, 0.00, -0.00, -1.00, 621.7, 217.3)">d</text><text xml:space="preserve" font-family="Arial-BoldMT,Arial" font-weight="bold" font-size="30.0" fill="#FFFFFF" transform="matrix(1.00, 0.00, -0.00, -1.00, 640.0, 217.3)"> </text><text xml:space="preserve" font-family="Arial-BoldMT,Arial" font-weight="bold" font-size="30.0" fill="#FFFFFF" transform="matrix(1.00, 0.00, -0.00, -1.00, 648.4, 217.3)">H</text><text xml:space="preserve" font-family="Arial-BoldMT,Arial" font-weight="bold" font-size="30.0" fill="#FFFFFF" transform="matrix(1.00, 0.00, -0.00, -1.00, 670.0, 217.3)">a</text><text xml:space="preserve" font-family="Arial-BoldMT,Arial" font-weight="bold" font-size="30.0" fill="#FFFFFF" transform="matrix(1.00, 0.00, -0.00, -1.00, 686.7, 217.3)">t</text></g></svg>