<?xml version="1.0" encoding="UTF-8" standalone="no"?><svg xmlns="http://www.w3.org/2000/svg" xmlns:xlink="http://www.w3.org/1999/xlink" clip-rule="evenodd" stroke-miterlimit="10" viewBox="0 0 1280 720"><desc>SVG generated by Keynote</desc><defs></defs><g transform="matrix(1.00, 0.00, -0.00, -1.00, 0.0, 720.0)"><path d="M 0.0 720.0 L 1280.0 720.0 L 1280.0 0.0 L 0.0 0.0 Z M 0.0 720.0 " fill="#000000"></path><text xml:space="preserve" font-family="Arial-BoldMT,Arial" font-weight="bold" font-size="32.0" fill="#FFFFFF" transform="matrix(1.00, 0.00, -0.00, -1.00, 269.7, 377.9)">S</text><text xml:space="preserve" font-family="Arial-BoldMT,Arial" font-weight="bold" font-size="32.0" fill="#FFFFFF" transform="matrix(1.00, 0.00, -0.00, -1.00, 291.1, 377.9)">h</text><text xml:space="preserve" font-family="Arial-BoldMT,Arial" font-weight="bold" font-size="32.0" fill="#FFFFFF" transform="matrix(1.00, 0.00, -0.00, -1.00, 310.6, 377.9)">o</text><text xml:space="preserve" font-family="Arial-BoldMT,Arial" font-weight="bold" font-size="32.0" fill="#FFFFFF" transform="matrix(1.00, 0.00, -0.00, -1.00, 330.1, 377.9)">o</text><text xml:space="preserve" font-family="Arial-BoldMT,Arial" font-weight="bold" font-size="32.0" fill="#FFFFFF" transform="matrix(1.00, 0.00, -0.00, -1.00, 349.7, 377.9)">t</text><text xml:space="preserve" font-family="Arial-BoldMT,Arial" font-weight="bold" font-size="32.0" fill="#FFFFFF" transform="matrix(1.00, 0.00, -0.00, -1.00, 360.3, 377.9)">’</text><text xml:space="preserve" font-family="Arial-BoldMT,Arial" font-weight="bold" font-size="32.0" fill="#FFFFFF" transform="matrix(1.00, 0.00, -0.00, -1.00, 369.2, 377.9)">n</text><text xml:space="preserve" font-family="Arial-BoldMT,Arial" font-weight="bold" font-size="32.0" fill="#FFFFFF" transform="matrix(1.00, 0.00, -0.00, -1.00, 388.8, 377.9)">S</text><text xml:space="preserve" font-family="Arial-BoldMT,Arial" font-weight="bold" font-size="32.0" fill="#FFFFFF" transform="matrix(1.00, 0.00, -0.00, -1.00, 410.1, 377.9)">h</text><text xml:space="preserve" font-family="Arial-BoldMT,Arial" font-weight="bold" font-size="32.0" fill="#FFFFFF" transform="matrix(1.00, 0.00, -0.00, -1.00, 429.6, 377.9)">a</text><text xml:space="preserve" font-family="Arial-BoldMT,Arial" font-weight="bold" font-size="32.0" fill="#FFFFFF" transform="matrix(1.00, 0.00, -0.00, -1.00, 447.4, 377.9)">r</text><text xml:space="preserve" font-family="Arial-BoldMT,Arial" font-weight="bold" font-size="32.0" fill="#FFFFFF" transform="matrix(1.00, 0.00, -0.00, -1.00, 459.9, 377.9)">e</text><text xml:space="preserve" font-family="Arial-BoldMT,Arial" font-weight="bold" font-size="32.0" fill="#FFFFFF" transform="matrix(1.00, 0.00, -0.00, -1.00, 477.7, 377.9)"> </text><text xml:space="preserve" font-family="Arial-BoldMT,Arial" font-weight="bold" font-size="32.0" fill="#FFFFFF" transform="matrix(1.00, 0.00, -0.00, -1.00, 486.6, 377.9)">w</text><text xml:space="preserve" font-family="Arial-BoldMT,Arial" font-weight="bold" font-size="32.0" fill="#FFFFFF" transform="matrix(1.00, 0.00, -0.00, -1.00, 511.5, 377.9)">i</text><text xml:space="preserve" font-family="Arial-BoldMT,Arial" font-weight="bold" font-size="32.0" fill="#FFFFFF" transform="matrix(1.00, 0.00, -0.00, -1.00, 520.4, 377.9)">t</text><text xml:space="preserve" font-family="Arial-BoldMT,Arial" font-weight="bold" font-size="32.0" fill="#FFFFFF" transform="matrix(1.00, 0.00, -0.00, -1.00, 531.0, 377.9)">h</text><text xml:space="preserve" font-family="Arial-BoldMT,Arial" font-weight="bold" font-size="32.0" fill="#FFFFFF" transform="matrix(1.00, 0.00, -0.00, -1.00, 550.6, 377.9)"> </text><text xml:space="preserve" font-family="Arial-BoldMT,Arial" font-weight="bold" font-size="32.0" fill="#FFFFFF" transform="matrix(1.00, 0.00, -0.00, -1.00, 559.4, 377.9)">C</text><text xml:space="preserve" font-family="Arial-BoldMT,Arial" font-weight="bold" font-size="32.0" fill="#FFFFFF" transform="matrix(1.00, 0.00, -0.00, -1.00, 582.6, 377.9)">o</text><text xml:space="preserve" font-family="Arial-BoldMT,Arial" font-weight="bold" font-size="32.0" fill="#FFFFFF" transform="matrix(1.00, 0.00, -0.00, -1.00, 602.1, 377.9)">r</text><text xml:space="preserve" font-family="Arial-BoldMT,Arial" font-weight="bold" font-size="32.0" fill="#FFFFFF" transform="matrix(1.00, 0.00, -0.00, -1.00, 614.6, 377.9)">d</text><text xml:space="preserve" font-family="Arial-BoldMT,Arial" font-weight="bold" font-size="32.0" fill="#FFFFFF" transform="matrix(1.00, 0.00, -0.00, -1.00, 634.1, 377.9)">o</text><text xml:space="preserve" font-family="Arial-BoldMT,Arial" font-weight="bold" font-size="32.0" fill="#FFFFFF" transform="matrix(1.00, 0.00, -0.00, -1.00, 653.6, 377.9)">v</text><text xml:space="preserve" font-family="Arial-BoldMT,Arial" font-weight="bold" font-size="32.0" fill="#FFFFFF" transform="matrix(1.00, 0.00, -0.00, -1.00, 671.4, 377.9)">a</text><text xml:space="preserve" font-family="Arial-BoldMT,Arial" font-weight="bold" font-size="32.0" fill="#FFFFFF" transform="matrix(1.00, 0.00, -0.00, -1.00, 689.2, 377.9)"> </text><text xml:space="preserve" font-family="Arial-BoldMT,Arial" font-weight="bold" font-size="32.0" fill="#FFFFFF" transform="matrix(1.00, 0.00, -0.00, -1.00, 698.1, 377.9)">a</text><text xml:space="preserve" font-family="Arial-BoldMT,Arial" font-weight="bold" font-size="32.0" fill="#FFFFFF" transform="matrix(1.00, 0.00, -0.00, -1.00, 715.9, 377.9)">n</text><text xml:space="preserve" font-family="Arial-BoldMT,Arial" font-weight="bold" font-size="32.0" fill="#FFFFFF" transform="matrix(1.00, 0.00, -0.00, -1.00, 735.5, 377.9)">d</text><text xml:space="preserve" font-family="Arial-BoldMT,Arial" font-weight="bold" font-size="32.0" fill="#FFFFFF" transform="matrix(1.00, 0.00, -0.00, -1.00, 755.0, 377.9)"> </text><text xml:space="preserve" font-family="Arial-BoldMT,Arial" font-weight="bold" font-size="32.0" fill="#FFFFFF" transform="matrix(1.00, 0.00, -0.00, -1.00, 763.9, 377.9)">K</text><text xml:space="preserve" font-family="Arial-BoldMT,Arial" font-weight="bold" font-size="32.0" fill="#FFFFFF" transform="matrix(1.00, 0.00, -0.00, -1.00, 787.0, 377.9)">e</text><text xml:space="preserve" font-family="Arial-BoldMT,Arial" font-weight="bold" font-size="32.0" fill="#FFFFFF" transform="matrix(1.00, 0.00, -0.00, -1.00, 804.8, 377.9)">y</text><text xml:space="preserve" font-family="Arial-BoldMT,Arial" font-weight="bold" font-size="32.0" fill="#FFFFFF" transform="matrix(1.00, 0.00, -0.00, -1.00, 822.6, 377.9)">c</text><text xml:space="preserve" font-family="Arial-BoldMT,Arial" font-weight="bold" font-size="32.0" fill="#FFFFFF" transform="matrix(1.00, 0.00, -0.00, -1.00, 840.4, 377.9)">l</text><text xml:space="preserve" font-family="Arial-BoldMT,Arial" font-weight="bold" font-size="32.0" fill="#FFFFFF" transform="matrix(1.00, 0.00, -0.00, -1.00, 849.3, 377.9)">o</text><text xml:space="preserve" font-family="Arial-BoldMT,Arial" font-weight="bold" font-size="32.0" fill="#FFFFFF" transform="matrix(1.00, 0.00, -0.00, -1.00, 868.8, 377.9)">a</text><text xml:space="preserve" font-family="Arial-BoldMT,Arial" font-weight="bold" font-size="32.0" fill="#FFFFFF" transform="matrix(1.00, 0.00, -0.00, -1.00, 886.6, 377.9)">k</text><text xml:space="preserve" font-family="Arial-BoldMT,Arial" font-weight="bold" font-size="32.0" fill="#FFFFFF" transform="matrix(1.00, 0.00, -0.00, -1.00, 904.5, 377.9)"> </text><text xml:space="preserve" font-family="Arial-BoldMT,Arial" font-weight="bold" font-size="32.0" fill="#FFFFFF" transform="matrix(1.00, 0.00, -0.00, -1.00, 913.3, 377.9)">b</text><text xml:space="preserve" font-family="Arial-BoldMT,Arial" font-weight="bold" font-size="32.0" fill="#FFFFFF" transform="matrix(1.00, 0.00, -0.00, -1.00, 932.9, 377.9)">a</text><text xml:space="preserve" font-family="Arial-BoldMT,Arial" font-weight="bold" font-size="32.0" fill="#FFFFFF" transform="matrix(1.00, 0.00, -0.00, -1.00, 950.7, 377.9)">c</text><text xml:space="preserve" font-family="Arial-BoldMT,Arial" font-weight="bold" font-size="32.0" fill="#FFFFFF" transform="matrix(1.00, 0.00, -0.00, -1.00, 968.5, 377.9)">k</text><text xml:space="preserve" font-family="Arial-BoldMT,Arial" font-weight="bold" font-size="32.0" fill="#FFFFFF" transform="matrix(1.00, 0.00, -0.00, -1.00, 986.3, 377.9)">e</text><text xml:space="preserve" font-family="Arial-BoldMT,Arial" font-weight="bold" font-size="32.0" fill="#FFFFFF" transform="matrix(1.00, 0.00, -0.00, -1.00, 1004.1, 377.9)">n</text><text xml:space="preserve" font-family="Arial-BoldMT,Arial" font-weight="bold" font-size="32.0" fill="#FFFFFF" transform="matrix(1.00, 0.00, -0.00, -1.00, 1023.6, 377.9)">d</text></g></svg>